<?xml version="1.0" encoding="utf-8"?>
<!-- Generator: Adobe Illustrator 23.0.4, SVG Export Plug-In . SVG Version: 6.00 Build 0)  -->
<svg version="1.1" id="Layer_1" xmlns="http://www.w3.org/2000/svg" xmlns:xlink="http://www.w3.org/1999/xlink" x="0px" y="0px"
	 viewBox="0 0 504.01 160.2" style="enable-background:new 0 0 504.01 160.2;" xml:space="preserve">
<style type="text/css">
	.st0{fill:#929497;}
	.st1{fill:#323031;}
</style>
<g>
	<g>
		<path class="st0" d="M305.88,0.08c-9.4,0-17.43,7.57-17.43,17.19c0,9.63,8.02,17.42,17.43,17.42c9.63,0,17.42-7.8,17.42-17.42
			C323.3,7.65,315.51,0.08,305.88,0.08z"/>
		<path class="st0" d="M358.72,0.08c-9.4,0-17.42,7.57-17.42,17.19c0,9.63,8.02,17.42,17.42,17.42c9.63,0,17.42-7.8,17.42-17.42
			C376.14,7.65,368.35,0.08,358.72,0.08z"/>
		<path class="st1" d="M446.01,43.98c-31.98,0-58,26.02-58,58s26.02,58,58,58s58-26.02,58-58C504,70,477.99,43.98,446.01,43.98z
			 M446.01,130.88c-15.93,0-28.9-12.96-28.9-28.9c0-15.93,12.96-28.9,28.9-28.9c15.93,0,28.9,12.96,28.9,28.9
			C474.9,117.92,461.94,130.88,446.01,130.88z"/>
		<path class="st1" d="M136.45,43.98c-31.98,0-58,26.02-58,58s26.02,58,58,58s58-26.02,58-58C194.44,70,168.43,43.98,136.45,43.98z
			 M136.45,130.88c-15.93,0-28.9-12.96-28.9-28.9c0-15.93,12.96-28.9,28.9-28.9c15.93,0,28.9,12.96,28.9,28.9
			C165.34,117.92,152.38,130.88,136.45,130.88z"/>
		<rect x="344.28" y="46.62" class="st1" width="29.1" height="110.72"/>
		<rect x="291.33" y="46.62" class="st1" width="29.1" height="110.72"/>
		<path class="st1" d="M60.43,29.42c3.07,0,6,1.14,8.25,3.22l19.73-21.39C80.77,4.2,70.83,0.32,60.43,0.32
			c-22.76,0-41.27,18.52-41.27,41.27v5.03H0v29.11h19.16v81.62h29.1V75.73h19.16V46.62H48.26v-5.03
			C48.26,34.88,53.73,29.42,60.43,29.42z"/>
		<path class="st1" d="M250.11,43.98c-22.76,0-41.27,18.51-41.27,41.27v72.09h29.1V85.25c0-6.71,5.46-12.17,12.17-12.17
			c3.42,0,6.51,1.43,8.72,3.72l19.67-21.42C271.1,48.33,261.11,43.98,250.11,43.98z"/>
	</g>
</g>
</svg>
